# xmcd
#
# Track frame offsets:
# 183
# 11395
# 23333
# 33663
# 44465
# 56923
# 66335
# 78373
# 90330
# 101253
# 114590
# 123690
# 132198
# 141613
# 154643
# 164335
# 175968
# 186985
# 199855
# 212280
# 223710
# 235288
#
# Disc length: 3302 seconds
#
#
# Revision: 0
# Processed by: cddbd v1.5.1PL2 Copyright (c) Steve Scherf et al.
# Submitted via: FreeRIP 2.944 
#
DISCID=350ce416
DTITLE=Dee Clark - Raindrops
DYEAR=1987
DGENRE=Soul
TTITLE0=I Just Can't Help Myself (With The Kool Gents)
TTITLE1=When I Call On You (With The Kool Gents)
TTITLE2=Just Like A Fool (With The Kool Gents)
TTITLE3=Seven Nights
TTITLE4=Why Don't You Come Home
TTITLE5=24 Boyfriends
TTITLE6=Oh Little Girl (With The Upsetters)
TTITLE7=Wondering (With The Upsetters)
TTITLE8=Nobody But You
TTITLE9=Blues Get Off My Shoulder
TTITLE10=Just Keep It Up
TTITLE11=Hey Little Girl
TTITLE12=Your Friends
TTITLE13=Raindrops
TTITLE14=You're Telling Our Secrets
TTITLE15=Walk Away From Me
TTITLE16=You Are Like The Wind
TTITLE17=Drums In My Heart
TTITLE18=Bring Back My Heart
TTITLE19=Fever
TTITLE20=I'm A Soldier Boy
TTITLE21=Shook Up Over You
EXTD=1958-1963
EXTT0=
EXTT1=
EXTT2=
EXTT3=
EXTT4=
EXTT5=
EXTT6=
EXTT7=
EXTT8=
EXTT9=
EXTT10=
EXTT11=
EXTT12=
EXTT13=
EXTT14=
EXTT15=
EXTT16=
EXTT17=
EXTT18=
EXTT19=
EXTT20=
EXTT21=
PLAYORDER=
